<svg width="81" height="79" viewBox="0 0 81 79" fill="none" xmlns="http://www.w3.org/2000/svg">
<path d="M18.1355 57.1966L0 74.6393L4.53388 79L22.6694 61.5573L18.1355 57.1966Z" fill="white"/>
<path fill-rule="evenodd" clip-rule="evenodd" d="M44.2696 65.7708C28.0411 65.7708 14.8853 52.6834 14.8853 36.5393C14.8853 20.3952 28.0411 7.30786 44.2696 7.30786C60.4981 7.30786 73.6539 20.3952 73.6539 36.5393C73.6539 52.6834 60.4981 65.7708 44.2696 65.7708ZM44.2696 73.0786C23.984 73.0786 7.53921 56.7194 7.53921 36.5393C7.53921 16.3592 23.984 0 44.2696 0C64.5552 0 81 16.3592 81 36.5393C81 56.7194 64.5552 73.0786 44.2696 73.0786Z" fill="white"/>
<path d="M42 24V49H47.9955V24L42 24Z" fill="white"/>
<path d="M57.2336 34H32.2337V39.9954L57.2337 39.9955L57.2336 34Z" fill="white"/>
</svg>
